<svg id="er5e0Ku6gxz1" xmlns="http://www.w3.org/2000/svg" xmlns:xlink="http://www.w3.org/1999/xlink" viewBox="0 0 512 512" shape-rendering="geometricPrecision" text-rendering="geometricPrecision"><polygon points="415.5,300.4 427,358.4 413.9,383 420.5,415.8 441,412.2 437.1,382.8 466.1,383.6 469.7,404.2 486,406 481.5,369 469.6,355.8 451,291.6 441,304.9" transform="matrix(.752383-.658726 0.656944 0.750347-222.239697 357.583828)" fill="#93aac1" stroke="#000" stroke-width="10"/><ellipse rx="70.568279" ry="73.9" transform="matrix(.916664 0 0 0.91069 253.611361 434.017587)" fill="#363e44" stroke="#000" stroke-width="10"/><ellipse rx="70.568279" ry="73.9" transform="matrix(.608972 0 0 0.590111 253.611361 434.017587)" fill="#7f8083" stroke="#000" stroke-width="14"/><rect width="25.332203" height="32.482538" rx="0" ry="0" transform="matrix(1 0 0 0.791226 240.945259 280.448084)" fill="#93aac1" stroke="#000" stroke-width="10"/><rect width="227.0851" height="269.65" rx="0" ry="0" transform="matrix(.837083 0 0 0.997294 158.566823 10.682422)" fill="#93aac1" stroke="#000" stroke-width="10" stroke-linejoin="round"/><line x1="44.404961" y1="0" x2="-44.404961" y2="0" transform="translate(304.250939 255.317577)" fill="none" stroke="#000" stroke-width="10"/><rect width="39.807746" height="58.2" rx="0" ry="0" transform="matrix(.610055-.369212 0.516369 0.853205 247.703522 238.038075)" fill="#93aac1" stroke="#000" stroke-width="14"/><ellipse rx="33.927057" ry="32.7" transform="matrix(1 0 0 0.997294 244.47885 202.467586)" fill="#d6ab77" stroke="#000" stroke-width="10"/><ellipse rx="33.927057" ry="32.7" transform="matrix(.639997 0 0 0.656978 296.58553 291.117587)" fill="#d6ab77" stroke="#000" stroke-width="14"/><rect width="43.73979" height="156.736099" rx="0" ry="0" transform="matrix(1 0 0 0.890049 231.741466 305.025501)" fill="#93aac1" stroke="#000" stroke-width="10"/><rect width="40.663688" height="71.075947" rx="0" ry="0" transform="matrix(1 0 0 1.330175 348.788415 82.445853)" fill="#3f81e0" stroke="#000" stroke-width="10"/><line x1="26.035216" y1="0" x2="-26.035217" y2="0" transform="translate(322.620684 232.717577)" fill="none" stroke="#000" stroke-width="10"/><line x1="26.035216" y1="0" x2="-26.035217" y2="0" transform="matrix(.566965 0 0 1 333.059802 207.979101)" fill="none" stroke="#000" stroke-width="10"/></svg>
