<svg id="ee91F7uBLms1" xmlns="http://www.w3.org/2000/svg" xmlns:xlink="http://www.w3.org/1999/xlink" viewBox="0 0 512 512" shape-rendering="geometricPrecision" text-rendering="geometricPrecision"><g transform="matrix(-1 0 0 1 509.133947-.000194)"><polygon points="415.5,300.4 427,358.4 413.9,383 420.5,415.8 441,412.2 437.1,382.8 466.1,383.6 469.7,404.2 486,406 481.5,369 469.6,355.8 451,291.6 441,304.9" transform="matrix(.752383-.658726 0.656944 0.750347-222.24 357.584)" fill="#93aac1" stroke="#000" stroke-width="10"/><ellipse rx="70.5683" ry="73.9" transform="matrix(.916664 0 0 0.91069 253.611 434.018)" fill="#363e44" stroke="#000" stroke-width="10"/><ellipse rx="70.5683" ry="73.9" transform="matrix(.608972 0 0 0.590111 253.611 434.018)" fill="#7f8083" stroke="#000" stroke-width="14"/><rect width="25.3322" height="32.4825" rx="0" ry="0" transform="matrix(1 0 0 0.791226 240.945 280.448001)" fill="#93aac1" stroke="#000" stroke-width="10"/><rect width="227.085" height="269.65" rx="0" ry="0" transform="matrix(.837083 0 0 0.997294 158.567 10.6824)" fill="#93aac1" stroke="#000" stroke-width="10" stroke-linejoin="round"/><line x1="44.404961" y1="0" x2="-44.404961" y2="0" transform="translate(304.251 255.318)" fill="none" stroke="#000" stroke-width="10"/><rect width="39.8077" height="58.2" rx="0" ry="0" transform="matrix(.610055-.369212 0.516369 0.853205 247.704 238.038)" fill="#93aac1" stroke="#000" stroke-width="14"/><ellipse rx="33.9271" ry="32.7" transform="matrix(1 0 0 0.997294 244.479 202.468)" fill="#d6ab77" stroke="#000" stroke-width="10"/><ellipse rx="33.9271" ry="32.7" transform="matrix(.639997 0 0 0.656978 296.586 291.118)" fill="#d6ab77" stroke="#000" stroke-width="14"/><rect width="43.7398" height="156.736" rx="0" ry="0" transform="matrix(1 0 0 0.890049 231.741 305.026)" fill="#93aac1" stroke="#000" stroke-width="10"/><rect width="40.6637" height="71.076" rx="0" ry="0" transform="matrix(1 0 0 1.33018 348.788 82.4459)" fill="#3f81e0" stroke="#000" stroke-width="10"/><line x1="26.035216" y1="0" x2="-26.035217" y2="0" transform="translate(322.621 232.718)" fill="none" stroke="#000" stroke-width="10"/><line x1="26.035216" y1="0" x2="-26.035217" y2="0" transform="matrix(.566965 0 0 1 333.060001 207.979)" fill="none" stroke="#000" stroke-width="10"/></g></svg>
