<svg id="eoE7B1rAhTl1" xmlns="http://www.w3.org/2000/svg" xmlns:xlink="http://www.w3.org/1999/xlink" viewBox="0 0 512 512" shape-rendering="geometricPrecision" text-rendering="geometricPrecision"><polygon points="209,15.7 167.8,51.4 139.5,96.9 134,150 134,227.5 134,256.5 150,271.8 187,276 273,276 343.9,276 367,271.8 378,256 378,158.4 378,96.9 348,51.4 313.5,23 279.5,11" fill="#c19393"/><polygon points="238,271.8 238,304.8 204,321 173.9,358.3 167.8,388 167.8,429.5 173.9,441 222,436 217.4,412.2 192,412.2 193,373.4 209,349 238,330 267.6,329 296.7,342 313.5,361.9 319,392 319,412.2 289,417 288,436 333,441 343.9,436 343.9,373.4 322,334.6 292,310.6 273,310.6 273,276" fill="#c19393"/><polygon points="97.7,199.8 105.4,220 115.7,234.5 111,256.5 105.4,267 97.7,261.7 79.7,256.5 65.7,254.9" fill="#c19393"/><polygon points="60.7,291.6 47,356.4 30.1,373.3 25,402 45.6,415.8 51.8,379.1 79.1,389.1 70,412.2 90.7,415.8 97.7,384 85,361.9 91.3,300.4 79.7,304.8" fill="#c19393"/><polygon points="390,233.4 406.3,267 420.5,256.5 441,256 411.9,199.8 406.3,223" fill="#c19393"/><polygon points="415.5,300.4 427,358.4 413.9,383 420.5,415.8 441,412.2 437.1,382.8 466.1,383.6 469.7,404.2 486,406 481.5,369 469.6,355.8 451,291.6 441,304.9" fill="#c19393"/><polygon points="134,168 117,168 105.4,184 99.9,205.6 110.8,227.5 134,237.9" fill="#ba94bf"/><polygon points="79.7,256.5 60.7,261.8 55,280.7 61.4,299.7 79.7,304.8 101,302.7 105.4,280.6 99.9,267" fill="#b994bf"/><polygon points="378,168 378,233.4 395.9,227.5 411.9,208 413.9,184.3 396,172" fill="#b794bf"/><polygon points="420.5,256.5 406.3,271.8 410.6,302.4 431.9,304.9 451,291.6 455,271.8 441,256" fill="#ba94bf"/><polygon points="228.4,373.3 224,471 234.1,497.2 262.8,502 283.3,490 289,451 289,373.4 279.5,358.4 255.8,353.7 234.1,358.3" fill="#363e44"/><g><path d="M459.9,411.4c.5,3,3.4,4.9,6.3,4.4l22.5-3.9c1.4-.2,2.7-1.1,3.5-2.2.8-1.2,1.2-2.7.9-4.1l-4.6-25.9c-1.9-10.9-9-19.8-19-23.9l-11.9-61.5c2.1-4.1,3.5-8.7,3.5-13.6c0-11.1-6.2-20.7-15.2-25.9l-29.3-61.6c-2.9-16.7-16.4-29.8-33.3-32.2v-30.2c0-69.4-57.1-126-127.3-126s-127.3,56.5-127.3,126v30.2c-17.1,2.3-30.7,15.5-33.5,32.2L65.8,254.9c-9,5.2-15.2,14.7-15.2,25.8c0,4.9,1.3,9.5,3.5,13.6l-12,61.5c-10,4.2-17.1,13.1-19,23.9l-4.6,26c-.3,1.4.1,2.9.9,4.1s2.1,2,3.5,2.2l22.8,3.9c1.4.2,2.9-.1,4.1-.9s2-2.1,2.2-3.5l3.5-20.6l12,1.9L64,413.6c-.2,1.4.1,2.9.9,4.1s2.1,2,3.6,2.2L91,423.6c.3.1.6.1.9.1c2.6,0,4.9-1.9,5.4-4.5l4.6-26.1c1.8-11.6-3-23.5-12.3-30.6L101,302.8c6-5.5,9.9-13.3,9.9-22c0-2.2-.3-4.3-.7-6.4l15.9-36.1c.8.2,1.7.3,2.5.4v8.2c0,19.8,16.2,36,36.1,36h68.9v19.8c-40.5,9.9-70.7,46-70.7,89v50c0,3,2.4,5.5,5.5,5.5h49v30.2c0,17.1,14,31,31.3,31h14.2c17.2,0,31.3-13.9,31.3-31v-30.2h49c3,0,5.5-2.4,5.5-5.5v-50c0-43-30.1-79.1-70.4-89v-19.8h68.7c20,0,36.3-16.1,36.3-36v-8.2c.8-.1,1.6-.2,2.3-.4l16,36.4c-.4,2-.6,4-.6,6.1c0,8.6,3.7,16.3,9.6,21.8l11.7,59.9c-9.5,7.1-14.3,19-12.2,30.7l4.4,26c.4,2.7,2.8,4.6,5.4,4.6.3,0,.6,0,.9-.1l22.8-3.7c1.4-.2,2.7-1,3.6-2.2.8-1.2,1.2-2.7.9-4.1L444.5,393l12-1.9l3.4,20.3ZM80.7,261.7c10.6,0,19.3,8.5,19.3,19s-8.6,19-19.3,19c-10.6,0-19.3-8.5-19.3-19s8.7-19,19.3-19Zm.1,107.8c7.5,4.4,11.6,13.1,10.3,21.6l-3.7,20.7-11.8-1.9l3.5-20.8c.2-1.4-.1-2.9-1-4.1-.8-1.2-2.1-2-3.6-2.2l-22.8-3.7c-3-.5-5.8,1.5-6.3,4.5l-3.5,20.6-11.9-2l3.6-20.6c1.3-7.7,7.1-14.2,14.6-16.5c1.9-.6,3.4-2.2,3.8-4.2l11-56.1c5,3.6,11,5.8,17.7,5.8c2.8,0,5.4-.5,7.9-1.2L78.2,363.8c-.5,2.3.6,4.6,2.6,5.7v0Zm23-107.8c-5.5-6.6-13.8-10.9-23.1-10.9-.3,0-.6.1-1,.1l17.5-36.8c3.5,8.8,10.1,16.1,18.5,20.4l-11.9,27.2Zm1.6-61.9c0-13.8,10-25.2,23.2-27.7v55.5c-13.2-2.6-23.2-14.1-23.2-27.8ZM283.3,477.1c0,11.1-9.1,20.1-20.4,20.1h-14.2c-11.2,0-20.4-9-20.4-20.1v-95.2c0-11.1,9.1-20.1,20.4-20.1h14.2c11.2,0,20.4,9,20.4,20.1v95.2ZM262.9,350.9h-14.2c-17.2,0-31.3,13.9-31.3,31v30.2h-19.3v-20.7c0-31.3,25.9-56.8,57.8-56.8c31.7,0,57.5,25.5,57.5,56.8v20.7h-19.3v-30.2c.1-17.1-13.9-31-31.2-31v0Zm74.9,40.5v44.6h-43.6v-12.9h24.7c3,0,5.5-2.4,5.5-5.5v-26.2c0-37.4-30.7-67.8-68.5-67.8-37.9,0-68.7,30.4-68.7,67.8v26.2c0,3,2.4,5.5,5.5,5.5h24.7v12.9h-43.6v-44.5c0-44.6,36.8-80.9,82.1-80.9c45.2,0,81.9,36.3,81.9,80.8v0Zm-70.5-91c-3.7-.5-7.5-.8-11.4-.8s-7.6.3-11.4.8v-17.7h22.8v17.7Zm105-53.7c0,13.8-11.4,25-25.4,25h-182.2c-10.2,0-18.9-6.1-22.9-14.8h60.5v-10.9h-62.8v-14.9h43.4v-10.9h-43.4v-14.9h27.4v-10.9h-27.4v-63.8c0-63.4,52.2-115,116.4-115s116.4,51.6,116.4,115v116.1Zm58.9,53c-10.6,0-19.3-8.5-19.3-19s8.6-19,19.3-19c10.5,0,19,8.5,19,19s-8.5,19-19,19ZM383.3,172c13.1,2.5,23,14,23,27.7s-9.9,25.2-23,27.7v-55.4Zm12.6,62.6c8.4-4.4,15-11.6,18.5-20.5l17.5,36.8c-.3,0-.5-.1-.8-.1-9.4,0-17.7,4.4-23.2,11.1l-12-27.3Zm41.2,148.2c-1.4.2-2.7,1-3.6,2.2-.8,1.2-1.2,2.7-.9,4.1l3.6,20.7-11.9,1.9-3.5-20.7c-1.5-8.5,2.6-17.2,10.3-21.6c2-1.2,3.1-3.5,2.6-5.8l-10.6-54.4c2.6.7,5.3,1.2,8.1,1.2c6.5,0,12.5-2.1,17.4-5.7l10.9,56c.4,2,1.9,3.6,3.8,4.2c7.6,2.3,13.2,8.6,14.6,16.5l3.6,20.6-11.8,2-3.7-20.6c-.5-2.9-3.3-4.9-6.2-4.4l-22.7,3.8Z"/></g></svg>
