<svg id="eGdHrPveOD11" xmlns="http://www.w3.org/2000/svg" xmlns:xlink="http://www.w3.org/1999/xlink" viewBox="0 0 512 512" shape-rendering="geometricPrecision" text-rendering="geometricPrecision"><g transform="matrix(1.249782 0 0 1.179994-63.911142-45.336887)"><rect width="40" height="300" rx="0" ry="0" transform="matrix(.766044 0.642788-.186528 0.222295 161.087335 335.002702)" fill="#976f2b" stroke="#000" stroke-width="10"/><rect width="40" height="300" rx="0" ry="0" transform="matrix(.766044 0.642788-.642788 0.766044 353.923619 105.189369)" fill="#d2dbed" stroke-width="10"/><rect width="40" height="300" rx="0" ry="0" transform="matrix(-.539362 0.642787-.457362-.383772 255.799809 392.568585)" fill="#d2dbed" stroke="#000" stroke-width="10"/><polygon points="-24.340501,-51.2 -4.340501,25.6 -44.340501,25.6 -24.340501,-51.2" transform="matrix(.766044 0.642788-.642788 0.766044 404.345776 114.080157)" fill="#d2dbed" stroke-width="10"/><ellipse rx="30" ry="30" transform="translate(107.803888 427.402818)" fill="#d2dbed" stroke="#000" stroke-width="10"/><line x1="-111.026484" y1="131.46702" x2="111.026484" y2="-131.46702" transform="matrix(1.018497 0.008722-.008893 1.038568 301.44477 197.496958)" fill="none" stroke="rgba(67,78,106,0.37)" stroke-width="3"/><line x1="-88.757697" y1="107.315358" x2="88.757698" y2="-107.315357" transform="translate(265.165921 212.504727)" fill="none" stroke="#000" stroke-width="8"/><line x1="-30.885224" y1="21.630759" x2="30.885224" y2="-21.630759" transform="translate(384.808843 83.558612)" fill="none" stroke="#000" stroke-width="8"/><line x1="15.564335" y1="-34.48651" x2="-15.564336" y2="34.48651" transform="translate(400.129732 96.414364)" fill="none" stroke="#000" stroke-width="8"/><line x1="90.419955" y1="-108.47879" x2="-90.419955" y2="108.47879" transform="translate(294.145442 239.379664)" fill="none" stroke="#050505" stroke-width="8"/></g></svg>
